<?xml version="1.0" standalone="no"?>
<!DOCTYPE svg PUBLIC "-//W3C//DTD SVG 20010904//EN"
 "http://www.w3.org/TR/2001/REC-SVG-20010904/DTD/svg10.dtd">
<svg version="1.0" xmlns="http://www.w3.org/2000/svg"
 width="256.000000pt" height="256.000000pt" viewBox="0 0 256.000000 256.000000"
 preserveAspectRatio="xMidYMid meet">

<g transform="translate(0.000000,256.000000) scale(0.100000,-0.100000)"
fill="#000000" stroke="none">
<path d="M805 1535 c-6 -46 -4 -62 16 -102 35 -68 70 -83 194 -83 55 0 129 7
165 16 106 25 222 86 298 159 l67 64 -150 1 -151 0 -74 -75 c-55 -55 -81 -75
-101 -75 -32 0 -59 28 -59 62 0 14 -3 40 -6 57 l-6 31 -94 0 -93 0 -6 -55z"/>
<path d="M905 1256 c-74 -28 -112 -100 -97 -186 l8 -45 89 -1 c100 0 102 1
104 77 1 21 9 43 19 52 35 32 63 21 139 -55 l73 -73 151 -2 151 -2 -18 22
c-75 88 -195 161 -323 196 -99 28 -244 36 -296 17z"/>
</g>
</svg>
