<?xml version="1.0" standalone="no"?>
<!DOCTYPE svg PUBLIC "-//W3C//DTD SVG 20010904//EN"
 "http://www.w3.org/TR/2001/REC-SVG-20010904/DTD/svg10.dtd">
<svg version="1.0" xmlns="http://www.w3.org/2000/svg"
 width="256.000000pt" height="256.000000pt" viewBox="0 0 256.000000 256.000000"
 preserveAspectRatio="xMidYMid meet">

<g transform="translate(0.000000,256.000000) scale(0.100000,-0.100000)"
fill="#000000" stroke="none">
<path d="M1077 2545 c-114 -19 -277 -74 -390 -132 -336 -174 -580 -499 -663
-883 -25 -118 -25 -372 0 -490 96 -444 384 -790 791 -949 140 -55 415 -107
415 -78 0 5 8 17 19 26 10 9 21 26 25 39 4 12 11 20 16 17 4 -2 13 9 20 26 8
17 18 28 26 25 6 -2 20 6 30 19 10 14 23 21 32 17 11 -4 14 -1 10 9 -4 10 8
23 38 38 24 13 44 29 44 36 0 7 18 20 40 29 22 9 40 21 40 27 0 5 5 7 10 4 6
-3 10 -1 10 4 0 6 6 11 14 11 7 0 29 11 49 24 19 13 38 22 41 18 3 -3 6 0 6 6
0 7 7 12 17 12 9 0 31 11 49 25 18 14 37 25 42 25 5 0 15 7 22 15 7 9 18 14
24 12 6 -2 32 7 57 20 26 13 52 23 58 23 6 0 11 4 11 9 0 8 29 18 78 27 7 1
23 9 35 17 12 8 49 22 82 32 75 23 66 20 90 29 76 29 98 36 114 36 24 0 42 28
86 134 105 253 122 542 49 819 -30 113 -133 325 -206 422 -186 248 -461 422
-773 491 -100 22 -349 27 -458 9z m753 -1285 c30 0 43 6 59 26 12 15 21 35 21
45 0 12 7 19 20 19 11 0 20 -7 20 -15 0 -24 -28 -73 -47 -83 -14 -9 -14 -11 5
-21 21 -11 62 -78 62 -101 0 -5 -9 -10 -20 -10 -14 0 -25 12 -36 41 -18 43
-43 59 -95 59 -28 0 -29 -1 -29 -50 0 -43 -3 -50 -20 -50 -19 0 -20 7 -20 154
0 139 2 155 18 158 15 3 17 -7 20 -84 l3 -88 39 0z m-1000 -25 c0 -108 -1
-115 -20 -115 -19 0 -20 7 -20 95 l0 95 -70 0 -70 0 0 -95 c0 -88 -1 -95 -20
-95 -19 0 -20 7 -20 115 l0 115 110 0 110 0 0 -115z m286 81 c29 -29 34 -41
34 -81 0 -40 -5 -52 -34 -81 -31 -31 -40 -34 -90 -34 -50 0 -60 4 -92 33 -30
27 -37 40 -38 75 -2 74 52 122 138 122 41 0 53 -5 82 -34z m284 14 c0 -17 -7
-20 -45 -20 l-45 0 0 -95 c0 -88 -1 -95 -20 -95 -19 0 -20 7 -20 95 l0 95 -40
0 c-33 0 -40 3 -40 20 0 19 7 20 105 20 98 0 105 -1 105 -20z m230 5 c34 -17
60 -62 60 -100 0 -38 -26 -83 -60 -100 -65 -34 -169 -6 -190 51 -22 57 -1 122
48 148 35 20 105 20 142 1z"/>
<path d="M984 1306 c-33 -15 -44 -33 -44 -72 0 -37 15 -60 49 -74 58 -23 121
14 121 71 0 43 -15 65 -51 78 -39 13 -37 13 -75 -3z"/>
<path d="M1524 1310 c-28 -11 -54 -48 -54 -77 0 -12 11 -34 24 -50 31 -36 95
-39 128 -5 28 28 30 85 2 112 -23 23 -71 33 -100 20z"/>
</g>
</svg>
