<?xml version="1.0" standalone="no"?>
<!DOCTYPE svg PUBLIC "-//W3C//DTD SVG 20010904//EN"
 "http://www.w3.org/TR/2001/REC-SVG-20010904/DTD/svg10.dtd">
<svg version="1.0" xmlns="http://www.w3.org/2000/svg"
 width="512.000000pt" height="512.000000pt" viewBox="0 0 512.000000 512.000000"
 preserveAspectRatio="xMidYMid meet">

<g transform="translate(0.000000,512.000000) scale(0.100000,-0.100000)"
fill="#000000" stroke="none">
<path d="M1817 3183 c-4 -3 -54 -5 -113 -4 l-106 1 4 -128 c3 -115 6 -134 31
-184 33 -67 80 -111 157 -147 53 -25 61 -26 230 -25 140 1 196 5 280 23 198
42 374 114 528 219 88 58 271 226 260 237 -8 8 -158 12 -158 4 0 -3 -10 -5
-22 -3 -63 9 -168 10 -168 1 0 -5 -6 -5 -13 2 -8 6 -17 8 -20 5 -6 -7 -162 -9
-182 -4 -32 10 -75 -23 -187 -142 -153 -162 -179 -177 -252 -143 -54 26 -66
59 -66 179 l0 106 -88 -2 c-49 -1 -93 1 -99 5 -6 4 -13 4 -16 0z"/>
<path d="M1830 2521 c-90 -29 -164 -94 -202 -176 -20 -44 -23 -64 -21 -168 0
-65 3 -121 6 -123 5 -6 40 -6 259 -5 l146 1 4 116 3 116 34 30 c31 28 39 30
89 26 61 -5 39 13 240 -201 l82 -89 306 0 c168 1 308 3 310 5 2 2 -32 41 -77
86 -173 173 -425 305 -699 366 -83 19 -437 30 -480 16z"/>
</g>
</svg>
