<?xml version="1.0" standalone="no"?>
<!DOCTYPE svg PUBLIC "-//W3C//DTD SVG 20010904//EN"
 "http://www.w3.org/TR/2001/REC-SVG-20010904/DTD/svg10.dtd">
<svg version="1.0" xmlns="http://www.w3.org/2000/svg"
 width="1440.000000pt" height="1200.000000pt" viewBox="0 0 1440.000000 1200.000000"
 preserveAspectRatio="xMidYMid meet">

<g transform="translate(0.000000,1200.000000) scale(0.100000,-0.100000)"
fill="#000000" stroke="none">
<path d="M6840 11419 c-707 -57 -1303 -210 -1918 -493 -854 -392 -1606 -1017
-2153 -1791 -836 -1183 -1167 -2659 -913 -4070 79 -440 186 -797 358 -1201
382 -895 1011 -1684 1796 -2255 396 -288 852 -531 1323 -703 245 -90 368 -126
663 -195 329 -76 513 -102 890 -126 l102 -6 6 55 7 56 40 0 c35 0 39 3 39 24
0 14 5 28 10 31 6 3 10 16 11 28 1 20 2 20 9 -3 8 -24 8 -24 9 -2 1 12 7 22
16 22 11 0 15 12 15 50 l0 50 34 0 c33 0 34 0 42 57 6 40 9 50 12 31 3 -24 8
-28 36 -28 l32 0 1 97 c2 81 5 100 20 111 17 12 19 9 26 -39 13 -89 25 -82 34
20 l6 71 33 0 c30 0 34 -3 34 -25 0 -14 -4 -25 -10 -25 -5 0 -10 -11 -10 -25
0 -16 6 -25 15 -25 9 0 15 9 15 25 0 20 5 25 25 25 23 0 25 3 23 36 -2 30 3
41 31 66 19 17 39 27 48 24 9 -4 17 1 20 13 3 13 17 21 43 25 50 8 100 37 100
58 0 9 4 19 9 22 5 3 12 31 16 61 5 45 10 55 26 55 14 0 19 -7 19 -30 0 -38
18 -40 22 -2 3 24 8 27 45 30 34 3 42 7 45 25 2 14 11 23 26 25 12 2 22 9 22
16 0 8 18 17 43 21 35 6 38 8 22 15 -17 7 -15 9 11 9 28 1 32 5 38 38 3 21 6
55 6 76 0 37 0 37 43 37 31 0 49 6 69 25 15 14 31 25 35 25 4 0 21 7 37 15 16
9 32 12 35 9 3 -4 0 -9 -6 -11 -25 -9 -14 -30 12 -25 14 2 23 8 20 12 -2 4 8
13 23 20 15 7 34 16 42 20 10 5 14 18 12 39 -3 26 0 31 17 31 12 0 21 -6 21
-15 0 -16 9 -19 34 -9 18 7 22 34 5 34 -6 0 -9 17 -7 43 2 35 7 43 26 45 12 2
22 -1 22 -7 0 -16 62 -24 93 -12 15 6 27 17 27 25 0 7 9 16 20 19 13 3 20 0
20 -9 0 -8 5 -14 10 -14 6 0 10 10 10 23 0 25 24 42 76 52 18 3 40 18 53 35
12 17 27 30 34 30 7 0 17 10 22 22 13 29 35 35 35 9 0 -17 6 -21 33 -20 17 0
26 3 20 6 -16 6 -17 45 -1 61 7 7 39 12 74 12 42 0 65 5 74 15 7 8 19 15 26
15 8 0 14 5 14 10 0 6 7 10 15 10 14 0 19 12 16 32 0 5 10 8 23 8 13 0 38 8
55 18 32 17 40 32 19 32 -9 0 -9 3 1 13 6 6 24 12 39 12 17 0 27 5 27 15 0 21
25 35 35 20 5 -9 19 -10 44 -6 27 5 37 13 42 31 3 14 12 25 19 25 7 0 18 7 25
15 18 22 28 18 32 -12 3 -26 28 -46 28 -23 0 15 41 49 60 50 8 0 24 12 37 28
18 22 24 24 32 13 8 -12 12 -12 26 2 9 10 12 17 6 17 -21 0 -11 15 21 33 21
12 34 15 36 8 6 -18 22 -12 22 8 0 31 28 51 71 51 21 0 39 5 39 10 0 6 5 10
10 10 6 0 10 -7 10 -15 0 -24 19 -18 32 10 6 13 20 27 31 31 16 5 17 8 6 15
-9 5 9 9 48 9 52 0 64 3 73 20 8 14 8 20 0 20 -6 0 -8 5 -4 11 4 7 21 9 40 6
28 -5 39 -1 58 20 18 19 31 24 50 21 14 -3 23 -2 21 2 -7 11 52 50 74 50 11 0
23 5 26 10 11 17 25 11 25 -10 0 -12 5 -26 12 -33 9 -10 16 -8 36 12 18 18 26
21 32 11 5 -8 9 -9 14 -1 4 6 2 11 -3 11 -6 0 -11 5 -11 10 0 6 7 10 15 10 9
0 20 12 26 28 7 15 13 22 16 15 6 -18 41 -16 59 2 9 8 26 15 39 15 13 0 27 4
30 10 3 5 1 10 -4 10 -18 0 -12 14 11 29 13 8 44 13 70 12 47 -1 66 13 31 22
-10 3 -4 5 12 5 17 -1 42 6 57 14 20 11 41 13 72 8 25 -4 51 -3 58 1 10 7 8 9
-4 9 -10 0 -18 7 -18 15 0 11 12 15 45 15 25 0 45 5 45 10 0 6 14 10 31 10 17
0 49 13 73 30 45 30 56 30 56 -2 0 -14 8 -18 35 -18 35 0 36 1 39 50 1 11 15
16 53 18 29 2 56 9 63 17 7 8 25 15 40 15 15 0 33 7 40 15 7 8 27 15 44 15 21
0 36 7 44 21 7 11 19 18 26 16 8 -3 31 1 52 8 22 8 53 14 69 15 18 0 38 8 48
20 18 21 33 24 107 21 l45 -2 37 63 c77 133 212 430 292 647 109 294 207 651
256 931 54 316 95 796 87 1020 -27 705 -150 1326 -377 1895 -86 216 -103 254
-207 459 -265 529 -592 984 -998 1391 -495 495 -1016 852 -1665 1143 -451 202
-997 354 -1491 416 -340 43 -780 57 -1059 35z m2520 -5140 l0 -381 143 4 c122
3 148 6 183 25 54 29 121 104 150 170 19 42 44 146 44 186 0 4 39 7 86 7 l86
0 -7 -42 c-10 -69 -27 -141 -41 -173 -43 -97 -155 -204 -249 -235 l-40 -14 67
-13 c84 -15 135 -41 180 -91 36 -40 83 -130 112 -215 9 -26 27 -74 41 -107 14
-33 25 -64 25 -70 0 -7 -33 -10 -96 -8 l-96 3 -40 110 c-22 61 -45 123 -51
139 -14 39 -60 90 -103 117 -58 35 -130 49 -266 49 l-128 0 0 -210 0 -210 -85
0 -85 0 0 654 0 655 58 11 c31 7 62 14 67 15 6 2 18 4 28 4 16 1 17 -24 17
-380z m-3109 15 c112 -21 190 -62 269 -143 120 -122 169 -266 142 -423 -7 -40
-19 -82 -26 -93 -7 -11 -19 -37 -25 -58 -7 -21 -40 -67 -73 -102 -72 -78 -202
-147 -312 -166 -79 -13 -210 -8 -276 12 -68 20 -200 96 -248 142 -48 47 -107
159 -118 225 -4 24 -11 45 -15 48 -12 7 -11 131 1 139 6 3 10 14 10 24 0 36
40 142 69 185 40 57 124 132 181 160 38 20 119 44 195 60 47 9 149 5 226 -10z
m2271 0 c101 -20 177 -57 246 -119 65 -59 107 -118 127 -181 9 -27 21 -60 28
-73 16 -33 16 -216 0 -233 -7 -6 -13 -18 -13 -26 0 -8 -15 -46 -34 -85 -34
-70 -99 -144 -156 -176 -149 -84 -239 -107 -379 -98 -99 7 -125 14 -240 71
-63 31 -98 56 -142 104 -32 34 -59 68 -59 73 0 6 -11 34 -25 61 -60 119 -57
286 7 409 45 89 148 191 231 230 122 56 264 71 409 43z m-3222 -489 l0 -485
-85 0 -85 0 0 405 0 405 -300 0 -300 0 -2 -402 -3 -403 -82 -3 -83 -3 0 486 0
485 470 0 470 0 0 -485z m2398 403 l3 -78 -183 -2 -183 -3 0 -400 0 -400 -82
-3 -83 -3 0 406 0 405 -180 0 -180 0 0 80 0 80 443 -2 442 -3 3 -77z m1972
-3638 c0 -6 -27 -10 -61 -10 -37 0 -58 4 -54 10 3 6 31 10 61 10 30 0 54 -4
54 -10z m-570 -260 c0 -5 -4 -10 -10 -10 -5 0 -10 5 -10 10 0 6 5 10 10 10 6
0 10 -4 10 -10z m-412 -208 c2 -7 -5 -12 -17 -12 -14 0 -19 5 -14 15 6 17 25
15 31 -3z m-936 -657 c-2 -19 -6 -35 -8 -35 -2 0 -4 16 -4 35 0 19 4 35 8 35
4 0 6 -16 4 -35z m-82 -95 c0 -5 -17 -9 -37 -9 -38 1 -38 1 -8 9 43 11 45 11
45 0z m-633 -537 c-2 -16 -4 -3 -4 27 0 30 2 43 4 28 2 -16 2 -40 0 -55z m40
-10 c-3 -10 -5 -4 -5 12 0 17 2 24 5 18 2 -7 2 -21 0 -30z m-126 -178 l-11
-40 5 40 c3 22 6 67 7 100 l2 60 3 -60 c2 -33 -1 -78 -6 -100z"/>
<path d="M6000 6136 c-88 -25 -143 -59 -183 -116 -52 -74 -70 -144 -65 -241 8
-135 69 -224 198 -287 50 -24 66 -27 165 -27 101 0 115 2 170 29 118 58 193
163 202 280 10 122 -41 242 -129 306 -86 62 -245 87 -358 56z"/>
<path d="M8253 6131 c-99 -29 -177 -92 -198 -158 -3 -13 -10 -23 -14 -23 -15
0 -34 -120 -28 -179 10 -115 88 -220 202 -277 55 -27 69 -29 170 -29 101 0
115 2 170 29 79 39 147 108 169 171 10 28 22 58 27 67 12 23 12 135 0 142 -4
3 -11 20 -15 37 -9 48 -64 136 -99 162 -97 71 -258 96 -384 58z"/>
<path d="M10220 2810 c0 -13 11 -13 30 0 12 8 11 10 -7 10 -13 0 -23 -4 -23
-10z"/>
<path d="M9030 2240 c0 -5 4 -10 9 -10 6 0 13 5 16 10 3 6 -1 10 -9 10 -9 0
-16 -4 -16 -10z"/>
<path d="M8560 1978 c0 -4 9 -8 20 -8 11 0 20 4 20 9 0 6 -9 9 -20 8 -11 -1
-20 -5 -20 -9z"/>
<path d="M8240 1771 c0 -16 24 -18 50 -4 25 13 25 13 -12 13 -21 0 -38 -4 -38
-9z"/>
<path d="M8150 1715 c0 -19 19 -19 44 0 19 14 18 15 -12 15 -22 0 -32 -5 -32
-15z"/>
<path d="M7040 615 c0 -14 5 -25 10 -25 6 0 10 11 10 25 0 14 -4 25 -10 25 -5
0 -10 -11 -10 -25z"/>
</g>
</svg>
