<?xml version="1.0" standalone="no"?>
<!DOCTYPE svg PUBLIC "-//W3C//DTD SVG 20010904//EN"
 "http://www.w3.org/TR/2001/REC-SVG-20010904/DTD/svg10.dtd">
<svg version="1.0" xmlns="http://www.w3.org/2000/svg"
 width="1440.000000pt" height="1200.000000pt" viewBox="0 0 1440.000000 1200.000000"
 preserveAspectRatio="xMidYMid meet">

<g transform="translate(0.000000,1200.000000) scale(0.100000,-0.100000)"
fill="#000000" stroke="none">
<path d="M1200 6000 l0 -6000 6000 0 6000 0 0 6000 0 6000 -6000 0 -6000 0 0
-6000z m3035 4467 c56 -25 113 -83 141 -142 l24 -50 0 -777 0 -778 -185 0
-185 0 0 700 0 700 -505 0 -505 0 0 -700 0 -700 -185 0 -185 0 0 768 c0 859
-3 822 70 905 39 44 88 74 145 88 17 4 323 7 680 6 602 -2 653 -3 690 -20z
m1556 -3 c317 -72 568 -310 666 -631 24 -80 27 -103 26 -243 0 -139 -3 -164
-27 -243 -71 -236 -223 -425 -436 -543 -218 -122 -500 -142 -738 -54 -223 83
-407 255 -507 473 -112 245 -104 540 22 779 137 260 379 431 679 478 78 12
224 5 315 -16z m2263 -3 c26 -24 26 -26 26 -183 l0 -158 -276 0 -276 0 -29
-29 -29 -29 0 -671 0 -671 -185 0 -185 0 0 671 0 671 -29 29 -29 29 -276 0
-276 0 0 151 c0 83 5 159 10 169 27 50 12 50 797 47 l731 -2 26 -24z m1056 15
c400 -61 705 -372 760 -776 72 -521 -352 -1002 -885 -1003 -238 0 -441 79
-616 241 -124 116 -214 266 -261 439 -29 109 -29 315 0 423 33 124 61 188 122
279 143 213 366 358 610 396 113 17 157 18 270 1z m1345 -41 c24 -23 25 -29
25 -162 l0 -138 -173 1 c-94 0 -177 1 -183 2 -16 3 -30 243 -15 270 27 50 34
52 182 52 135 0 141 -1 164 -25z m1258 -9 c-100 -121 -241 -275 -258 -283 -20
-10 -540 -12 -549 -2 -5 5 112 149 172 212 39 41 92 72 157 93 27 9 114 13
273 13 l233 1 -28 -34z m-1233 -437 c0 -91 54 -147 129 -135 29 4 52 22 121
96 l85 91 269 0 c148 0 272 -3 275 -7 8 -8 -72 -80 -154 -138 -94 -68 -202
-122 -318 -161 -143 -48 -255 -65 -421 -65 -127 0 -146 2 -191 24 -118 56
-190 185 -170 306 l7 39 122 3 c68 2 150 1 184 0 l62 -4 0 -49z m222 -494
c227 -39 459 -152 615 -300 l58 -54 -280 -1 -280 0 -90 95 c-85 90 -92 95
-130 95 -73 0 -115 -51 -115 -140 l0 -50 -184 0 -184 0 -6 45 c-20 131 70 278
193 315 46 14 314 11 403 -5z m-222 -585 c0 -136 -1 -142 -25 -165 -23 -24
-29 -25 -157 -25 -194 0 -204 10 -193 205 l7 120 184 3 184 3 0 -141z m1121
-24 l140 -161 -223 -3 c-254 -3 -316 8 -399 72 -37 28 -187 199 -212 243 -6 9
59 11 274 10 l281 -1 139 -160z m-627 -903 c23 -109 69 -194 146 -272 91 -92
228 -160 323 -161 24 0 27 -4 27 -35 0 -32 -3 -35 -37 -41 -131 -22 -218 -67
-309 -158 -81 -82 -125 -161 -149 -271 -17 -74 -17 -75 -49 -75 -31 0 -32 1
-42 68 -35 220 -227 401 -466 437 -34 5 -38 9 -38 36 0 32 -2 31 85 48 198 36
380 218 416 416 17 86 16 85 47 85 28 0 29 -3 46 -77z m-6707 -103 c16 -81 35
-128 77 -194 88 -137 206 -212 399 -251 22 -4 27 -11 27 -36 0 -32 2 -31 -85
-48 -131 -24 -264 -117 -341 -236 -42 -67 -61 -113 -77 -195 -12 -55 -17 -66
-36 -68 -32 -5 -39 5 -52 73 -5 33 -28 97 -50 142 -71 143 -216 257 -367 285
-83 16 -82 15 -82 47 0 24 5 32 23 36 12 3 44 10 72 15 192 42 365 222 405
425 15 75 16 77 48 73 23 -3 27 -10 39 -68z m4046 -685 c82 -21 122 -44 301
-169 188 -131 252 -197 296 -302 37 -89 49 -179 42 -302 l-5 -92 59 0 c81 -1
112 -14 244 -105 170 -116 196 -139 215 -189 16 -42 16 -56 1 -213 -9 -92 -32
-346 -51 -563 -31 -354 -40 -451 -61 -665 -10 -98 -50 -158 -129 -191 -36 -15
-86 -16 -555 -10 -934 12 -1501 26 -1524 38 -71 36 -267 178 -287 207 -21 31
-24 45 -23 130 1 53 9 173 18 266 22 227 63 688 81 910 8 99 22 203 30 231 18
62 83 127 141 143 22 6 127 11 235 11 l196 0 12 138 c23 260 56 368 154 497
82 108 220 199 351 231 71 17 191 17 259 -1z m-2823 -1615 c140 -31 227 -64
406 -150 l161 -77 7 -153 c4 -84 10 -160 14 -169 3 -9 -22 9 -57 39 -98 87
-207 158 -266 176 -31 8 -60 14 -65 12 -5 -2 16 -41 46 -88 67 -102 135 -234
179 -350 l33 -85 95 -3 94 -3 17 -62 c9 -34 33 -100 52 -147 18 -46 34 -88 34
-92 0 -4 -48 -9 -107 -10 -76 -2 -107 -6 -106 -15 12 -59 22 -351 15 -442 -5
-78 -4 -115 3 -117 6 -3 78 -3 160 -2 l150 3 12 36 c6 20 18 85 25 144 l14
108 61 -84 c34 -46 114 -140 178 -207 114 -121 117 -125 110 -160 -15 -81
-107 -281 -178 -387 -207 -308 -497 -512 -862 -607 -128 -32 -133 -33 -340
-32 -202 0 -215 2 -327 32 -147 38 -210 63 -423 167 -322 157 -518 334 -674
606 -374 656 -170 1499 464 1914 177 116 354 185 570 221 120 20 384 12 505
-16z m3656 -3046 c46 -228 204 -389 429 -439 72 -16 75 -18 75 -46 0 -32 1
-31 -82 -47 -99 -19 -185 -67 -269 -151 -86 -86 -130 -166 -151 -274 -12 -66
-13 -67 -45 -67 -28 0 -33 4 -33 24 0 42 -41 159 -76 217 -42 69 -148 170
-213 204 -44 22 -115 44 -193 60 -23 4 -28 11 -28 33 0 27 4 29 76 46 226 54
392 226 429 447 10 57 12 61 43 57 23 -3 28 -9 38 -64z"/>
<path d="M5485 10108 c-72 -13 -184 -70 -243 -123 -114 -103 -176 -242 -176
-395 1 -47 6 -105 13 -130 53 -194 212 -344 411 -386 318 -67 630 188 630 516
0 331 -306 581 -635 518z"/>
<path d="M8863 10105 c-190 -41 -352 -203 -398 -397 -62 -263 91 -531 353
-619 94 -32 230 -32 324 0 376 127 489 592 210 871 -134 134 -306 185 -489
145z"/>
<path d="M8320 6821 c-75 -24 -107 -42 -161 -90 -88 -77 -140 -189 -153 -328
l-7 -73 240 0 239 0 6 28 c3 15 10 93 17 174 13 155 5 237 -26 285 -19 29 -74
30 -155 4z"/>
<path d="M5259 5093 c-60 -83 -189 -322 -189 -350 0 -10 52 -13 240 -13 l240
0 -6 28 c-22 94 -181 409 -212 420 -5 1 -39 -37 -73 -85z"/>
<path d="M5170 4410 l-194 -5 -8 -35 c-12 -50 -22 -406 -14 -473 l7 -57 322 2
321 3 9 35 c14 56 21 481 8 513 l-11 27 -122 -2 c-68 -1 -211 -5 -318 -8z"/>
<path d="M5036 3503 c22 -97 180 -410 212 -421 19 -6 124 147 194 285 38 73
68 139 68 148 0 13 -32 15 -240 15 l-240 0 6 -27z"/>
<path d="M5941 3433 c-17 -53 -52 -139 -76 -191 -25 -52 -44 -97 -42 -99 8 -7
135 93 210 166 70 67 177 198 177 215 0 3 -53 6 -119 6 l-119 0 -31 -97z"/>
</g>
</svg>
