<?xml version="1.0" standalone="no"?>
<!DOCTYPE svg PUBLIC "-//W3C//DTD SVG 20010904//EN"
 "http://www.w3.org/TR/2001/REC-SVG-20010904/DTD/svg10.dtd">
<svg version="1.0" xmlns="http://www.w3.org/2000/svg"
 width="128.000000pt" height="128.000000pt" viewBox="0 0 128.000000 128.000000"
 preserveAspectRatio="xMidYMid meet">

<g transform="translate(0.000000,128.000000) scale(0.100000,-0.100000)"
fill="#000000" stroke="none">
<path d="M500 1264 c-178 -38 -348 -171 -427 -334 -95 -195 -96 -378 -2 -569
93 -188 285 -327 482 -347 64 -6 65 -6 88 26 59 79 273 203 459 264 l95 32 26
53 c55 111 71 256 44 385 -73 343 -418 565 -765 490z m416 -634 c17 0 28 7 31
20 3 11 9 20 14 20 12 0 11 -27 -1 -35 -7 -4 -5 -14 5 -28 8 -12 15 -27 15
-34 0 -22 -16 -14 -28 13 -15 32 -55 30 -60 -3 -2 -13 -8 -23 -13 -23 -11 0
-12 143 -1 154 4 4 8 -13 10 -38 3 -42 5 -46 28 -46z m-361 25 c14 -13 25 -31
25 -40 0 -24 -38 -55 -68 -55 -61 0 -85 81 -32 107 36 18 48 16 75 -12z m272
3 c7 -6 13 -23 13 -39 0 -72 -104 -82 -125 -12 -10 34 37 77 73 68 15 -4 33
-11 39 -17z m-407 -43 c0 -67 -18 -73 -22 -7 -3 47 -3 47 -38 47 -34 0 -35 -1
-35 -40 0 -61 -20 -59 -23 3 l-3 52 60 0 61 0 0 -55z m263 48 c-20 -4 -23 -11
-23 -48 0 -60 -18 -67 -22 -8 -3 41 -6 48 -28 54 -16 5 -4 7 35 7 33 -1 50 -3
38 -5z"/>
<path d="M480 646 c-6 -8 -10 -25 -8 -38 4 -30 56 -38 75 -12 17 23 16 29 -3
48 -19 20 -48 20 -64 2z"/>
<path d="M750 646 c-6 -8 -10 -25 -8 -38 2 -19 9 -23 38 -23 29 0 36 4 38 23
4 28 -14 52 -38 52 -10 0 -23 -7 -30 -14z"/>
</g>
</svg>
