<?xml version="1.0" standalone="no"?>
<!DOCTYPE svg PUBLIC "-//W3C//DTD SVG 20010904//EN"
 "http://www.w3.org/TR/2001/REC-SVG-20010904/DTD/svg10.dtd">
<svg version="1.0" xmlns="http://www.w3.org/2000/svg"
 width="128.000000pt" height="128.000000pt" viewBox="0 0 128.000000 128.000000"
 preserveAspectRatio="xMidYMid meet">

<g transform="translate(0.000000,128.000000) scale(0.100000,-0.100000)"
fill="#000000" stroke="none">
<path d="M500 1264 c-297 -63 -515 -351 -497 -655 13 -204 124 -397 291 -504
120 -77 294 -118 336 -80 11 10 20 24 20 32 0 7 4 13 8 13 5 0 17 8 28 18 69
64 276 173 409 217 104 33 109 38 134 96 101 233 46 505 -138 690 -157 156
-375 220 -591 173z m416 -634 c17 0 28 7 31 20 3 11 9 20 14 20 12 0 11 -27 0
-35 -6 -3 -1 -21 10 -40 17 -28 18 -35 7 -35 -8 0 -20 11 -26 25 -8 17 -20 25
-37 25 -20 0 -25 -5 -25 -25 0 -14 -4 -25 -10 -25 -12 0 -14 143 -2 154 4 4 8
-13 10 -38 3 -42 5 -46 28 -46z m-361 25 c14 -13 25 -31 25 -40 0 -24 -38 -55
-68 -55 -61 0 -85 81 -32 107 36 18 48 16 75 -12z m263 9 c29 -20 31 -79 3
-94 -44 -23 -93 -6 -106 37 -4 17 1 29 19 48 29 29 52 31 84 9z m-398 -49 c0
-67 -18 -73 -22 -7 -3 47 -3 47 -38 47 -35 0 -35 0 -38 -47 -4 -66 -22 -60
-22 7 l0 55 60 0 60 0 0 -55z m263 48 c-20 -4 -23 -11 -23 -54 0 -63 -18 -64
-22 -2 -3 41 -6 48 -28 54 -16 5 -4 7 35 7 33 -1 50 -3 38 -5z"/>
<path d="M480 646 c-6 -8 -10 -25 -8 -38 4 -30 56 -38 74 -13 30 41 -33 90
-66 51z"/>
<path d="M750 646 c-6 -8 -10 -25 -8 -38 2 -19 9 -23 38 -23 29 0 36 4 38 23
4 28 -14 52 -38 52 -10 0 -23 -7 -30 -14z"/>
</g>
</svg>
